<svg fill="#000000" xmlns="http://www.w3.org/2000/svg"  viewBox="0 0 64 64" width="128px" height="128px"><path d="M 32 4 C 27.468963 4 23.190793 5.0853111 19.402344 7 L 8.1171875 7 A 1.0001 1.0001 0 0 0 7.9902344 6.9902344 A 1.0001 1.0001 0 0 0 7 8.1289062 L 7 19.402344 C 5.0853122 23.190792 4 27.468966 4 32 C 4 36.531034 5.0853122 40.809208 7 44.597656 L 7 55.847656 A 1.0001 1.0001 0 0 0 8.1523438 57 L 19.402344 57 C 23.190793 58.914689 27.468963 60 32 60 C 36.531037 60 40.809207 58.914689 44.597656 57 L 55.847656 57 A 1.0001 1.0001 0 0 0 57 55.847656 L 57 44.597656 C 58.914688 40.809208 60 36.531034 60 32 C 60 27.468966 58.914688 23.190792 57 19.402344 L 57 8.1269531 A 1.0001 1.0001 0 0 0 55.980469 6.9902344 A 1.0001 1.0001 0 0 0 55.869141 7 L 44.597656 7 C 40.809207 5.0853111 36.531037 4 32 4 z M 32 6 C 36.234525 6 40.226823 7.0167034 43.757812 8.8085938 A 1.0001 1.0001 0 0 0 44.035156 8.9492188 C 48.738801 11.407692 52.592309 15.2612 55.050781 19.964844 A 1.0001 1.0001 0 0 0 55.193359 20.244141 C 56.984506 23.774554 58 27.766416 58 32 C 58 36.234522 56.983296 40.226824 55.191406 43.757812 A 1.0001 1.0001 0 0 0 55.052734 44.033203 C 52.594318 48.737904 48.739577 52.591902 44.035156 55.050781 A 1.0001 1.0001 0 0 0 43.755859 55.193359 C 40.225446 56.984507 36.233587 58 32 58 C 27.765475 58 23.773177 56.983297 20.242188 55.191406 A 1.0001 1.0001 0 0 0 19.964844 55.050781 C 15.261199 52.592308 11.407691 48.7388 8.9492188 44.035156 A 1.0001 1.0001 0 0 0 8.8085938 43.759766 C 7.0162124 40.228396 6 36.235142 6 32 C 6 27.765478 7.0167044 23.773176 8.8085938 20.242188 A 1.0001 1.0001 0 0 0 8.9492188 19.964844 C 11.407691 15.2612 15.261199 11.407692 19.964844 8.9492188 A 1.0001 1.0001 0 0 0 20.244141 8.8066406 C 23.774554 7.0154933 27.766413 6 32 6 z M 10.414062 9 L 16.046875 9 C 14.947422 9.7644487 13.906785 10.605458 12.929688 11.515625 L 10.414062 9 z M 47.953125 9 L 53.585938 9 L 51.070312 11.515625 C 50.093215 10.605458 49.052578 9.7644487 47.953125 9 z M 9 10.414062 L 11.515625 12.929688 C 10.605458 13.906785 9.7644484 14.947422 9 16.046875 L 9 10.414062 z M 55 10.414062 L 55 16.046875 C 54.235552 14.947422 53.394542 13.906785 52.484375 12.929688 L 55 10.414062 z M 14 15 A 1.0001 1.0001 0 0 0 13.105469 16.447266 L 14.59375 19.425781 C 14.898657 20.036805 15.13479 20.67983 15.294922 21.34375 L 20.929688 44.75 C 21.260585 46.125026 21.095612 47.572449 20.462891 48.837891 L 20.105469 49.552734 A 1.0001 1.0001 0 0 0 21 51 L 30.5 51 A 1.0001 1.0001 0 0 0 31.449219 49.683594 L 31.001953 48.341797 C 30.700987 47.438898 30.663757 46.469138 30.894531 45.546875 L 32.087891 40.773438 L 33.496094 45.46875 C 33.792043 46.455804 33.777091 47.508564 33.451172 48.486328 L 33.050781 49.683594 A 1.0001 1.0001 0 0 0 34 51 L 44 51 A 1.0001 1.0001 0 0 0 44.894531 49.552734 L 44.423828 48.609375 C 43.851341 47.4644 43.660354 46.165901 43.878906 44.904297 L 48.220703 22.533203 C 48.376464 21.73099 48.640542 20.955244 49.005859 20.224609 L 50.894531 16.447266 A 1.0001 1.0001 0 0 0 50 15 L 40 15 A 1.0001 1.0001 0 0 0 39.013672 16.164062 L 39.369141 18.298828 C 39.445281 18.758082 39.441512 19.224369 39.357422 19.681641 L 36.851562 33.28125 L 32.970703 17.757812 A 1.0001 1.0001 0 0 0 31.029297 17.757812 L 27.083984 33.541016 L 24.257812 20.119141 C 24.111366 19.42452 24.152265 18.704514 24.376953 18.03125 L 24.949219 16.316406 A 1.0001 1.0001 0 0 0 24 15 L 14 15 z M 15.617188 17 L 22.611328 17 L 22.478516 17.398438 C 22.141204 18.409173 22.081228 19.491823 22.300781 20.533203 L 26.021484 38.205078 A 1.0001 1.0001 0 0 0 27.970703 38.242188 L 32 22.125 L 36.029297 38.242188 A 1.0001 1.0001 0 0 0 37.984375 38.181641 L 41.324219 20.044922 A 1.0001 1.0001 0 0 0 41.324219 20.042969 C 41.450132 19.35824 41.455653 18.65745 41.341797 17.970703 L 41.179688 17 L 48.382812 17 L 47.216797 19.330078 C 46.770114 20.223443 46.448053 21.172557 46.257812 22.152344 L 41.912109 44.542969 A 1.0001 1.0001 0 0 0 41.908203 44.5625 C 41.647189 46.069216 41.888284 47.596498 42.476562 49 L 35.367188 49 C 35.786574 47.664681 35.81447 46.236484 35.412109 44.894531 L 32.957031 36.712891 A 1.0001 1.0001 0 0 0 31.029297 36.757812 L 28.953125 45.0625 C 28.629899 46.354237 28.682482 47.711508 29.103516 48.974609 L 29.111328 49 L 22.46875 49 C 23.048418 47.492492 23.255617 45.862879 22.875 44.28125 L 17.238281 20.875 C 17.042557 20.063516 16.755505 19.277735 16.382812 18.53125 L 15.617188 17 z M 51.515625 26.892578 C 50.974625 26.785578 50.445797 27.138641 50.341797 27.681641 C 50.235797 28.223641 50.590812 28.750469 51.132812 28.855469 L 53.095703 29.238281 C 53.159703 29.251281 53.224109 29.257812 53.287109 29.257812 C 53.756109 29.257812 54.174578 28.925266 54.267578 28.447266 C 54.373578 27.905266 54.020516 27.380391 53.478516 27.275391 L 51.515625 26.892578 z M 12.048828 27.220703 C 11.920484 27.203656 11.7875 27.211547 11.65625 27.248047 L 9.7265625 27.779297 C 9.1935625 27.926297 8.8813437 28.475812 9.0273438 29.007812 C 9.1493437 29.451813 9.5522344 29.742188 9.9902344 29.742188 C 10.078234 29.742188 10.169812 29.731031 10.257812 29.707031 L 12.185547 29.177734 C 12.718547 29.030734 13.030766 28.479266 12.884766 27.947266 C 12.774516 27.547516 12.433859 27.271844 12.048828 27.220703 z M 50.644531 31.347656 C 50.101531 31.238656 49.577656 31.595672 49.472656 32.138672 C 49.366656 32.680672 49.719719 33.205547 50.261719 33.310547 L 52.224609 33.693359 C 52.288609 33.706359 52.354969 33.712891 52.417969 33.712891 C 52.886969 33.712891 53.305437 33.382297 53.398438 32.904297 C 53.504437 32.362297 53.149422 31.835469 52.607422 31.730469 L 50.644531 31.347656 z M 13.244141 31.568359 C 13.115891 31.551484 12.982312 31.560656 12.851562 31.597656 L 10.923828 32.126953 C 10.390828 32.273953 10.078609 32.823469 10.224609 33.355469 C 10.346609 33.799469 10.7495 34.091797 11.1875 34.091797 C 11.2745 34.091797 11.364125 34.078688 11.453125 34.054688 L 13.382812 33.525391 C 13.915812 33.378391 14.226078 32.828875 14.080078 32.296875 C 13.969828 31.896375 13.628891 31.618984 13.244141 31.568359 z M 49.378906 35.804688 C 48.997625 35.884094 48.683016 36.189203 48.603516 36.595703 C 48.497516 37.137703 48.850578 37.662578 49.392578 37.767578 L 51.355469 38.150391 C 51.419469 38.163391 51.485828 38.169922 51.548828 38.169922 C 52.017828 38.169922 52.436297 37.839328 52.529297 37.361328 C 52.635297 36.819328 52.280281 36.2925 51.738281 36.1875 L 49.775391 35.804688 C 49.639891 35.776688 49.506 35.778219 49.378906 35.804688 z M 14.441406 35.916016 C 14.313016 35.899109 14.180328 35.908062 14.048828 35.945312 L 12.119141 36.474609 C 11.586141 36.621609 11.273922 37.171125 11.419922 37.703125 C 11.541922 38.147125 11.944812 38.439453 12.382812 38.439453 C 12.470812 38.439453 12.560437 38.427344 12.648438 38.402344 L 14.578125 37.873047 C 15.111125 37.726047 15.423344 37.176531 15.277344 36.644531 C 15.167094 36.244781 14.826578 35.966734 14.441406 35.916016 z M 48.90625 40.261719 C 48.36225 40.155719 47.838422 40.508781 47.732422 41.050781 C 47.626422 41.592781 47.981437 42.119609 48.523438 42.224609 L 50.486328 42.607422 C 50.550328 42.620422 50.614734 42.626953 50.677734 42.626953 C 51.145734 42.626953 51.564203 42.294406 51.658203 41.816406 C 51.764203 41.274406 51.411141 40.749531 50.869141 40.644531 L 48.90625 40.261719 z M 15.634766 40.265625 C 15.506469 40.24875 15.373188 40.255969 15.242188 40.292969 L 13.314453 40.822266 C 12.781453 40.969266 12.469234 41.520734 12.615234 42.052734 C 12.737234 42.496734 13.140125 42.787109 13.578125 42.787109 C 13.666125 42.787109 13.75575 42.775953 13.84375 42.751953 L 15.773438 42.220703 C 16.306438 42.073703 16.618656 41.524188 16.472656 40.992188 C 16.362406 40.591688 16.019656 40.31625 15.634766 40.265625 z M 9 47.953125 C 9.7644484 49.052578 10.605458 50.093215 11.515625 51.070312 L 9 53.585938 L 9 47.953125 z M 55 47.953125 L 55 53.585938 L 52.484375 51.070312 C 53.394542 50.093215 54.235552 49.052578 55 47.953125 z M 12.929688 52.484375 C 13.906785 53.394542 14.947422 54.235551 16.046875 55 L 10.414062 55 L 12.929688 52.484375 z M 51.070312 52.484375 L 53.585938 55 L 47.953125 55 C 49.052578 54.235551 50.093215 53.394542 51.070312 52.484375 z"/></svg>