<?xml version="1.0" standalone="no"?><!DOCTYPE svg PUBLIC "-//W3C//DTD SVG 1.1//EN" "http://www.w3.org/Graphics/SVG/1.1/DTD/svg11.dtd"><svg t="1641909771050" class="icon" viewBox="0 0 1024 1024" version="1.1" xmlns="http://www.w3.org/2000/svg" p-id="22038" xmlns:xlink="http://www.w3.org/1999/xlink" width="200" height="200"><defs><style type="text/css"></style></defs><path d="M287.37194667 333.04348445l159.38332444-121.16878223c43.80672-32.62236445 101.59559111-41.0112 151.92746667-21.43800889l253.52192 96.93525334c16.77767111 6.52401778 34.48604445 9.32067555 51.26371555 9.32067555h41.94304c12.11733333 0 22.36871111 9.32067555 22.36871112 21.43687111V629.44142222c0 12.11733333-10.25137778 22.36984889-22.36871112 22.36984889h-54.99221333c-7.45585778 0-15.84469333 2.79665778-21.43687111 7.45699556l-12.11733334 10.25137778c-2.79665778 2.79665778-7.45699555 1.86595555-10.25251555-0.93070223L551.14638222 308.80881778c-7.45585778-9.32067555-20.50503111-11.18435555-30.75754667-5.59217778l-135.14979555 75.49724445c-27.03018667 14.91399111-59.65255111 16.77767111-88.54641778 4.66033777-14.91285333-6.52401778-22.36984889-24.23352889-15.84583111-40.07822222 0-3.72849778 2.79665778-7.45699555 6.52515556-10.25251555zM78.58858667 650.87715555h47.53635555l33.55306667-41.0112c29.82684445-36.35086222 83.88608-41.0112 120.23694222-11.18435555 13.04917333 11.18435555 23.30168889 26.09720889 27.96202667 42.87488 28.89386667 7.45585778 51.26371555 29.82570667 59.65255111 58.72071111 20.50503111 6.52401778 39.14638222 19.57319111 49.40003556 39.14638222 17.70837333 2.79552 34.48604445 11.18435555 47.53521777 24.23352889 27.03018667 28.89386667 32.62236445 71.76874667 12.11733333 106.25592889l-4.66147555 8.38883556v0.93184c22.36984889 14.91285333 52.19669333 10.25251555 68.04138667-12.11733334 7.45699555-11.18435555 10.25251555-24.23352889 7.45699555-37.28270222v-0.93184h0.93184l3.72849778 3.72849778c16.77653333 16.77653333 43.80672 19.57319111 63.37991111 6.52401778 15.84583111-11.18435555 23.30168889-30.75754667 19.57319111-49.39889778v-0.93297778h0.93297778l3.72736 3.72849778c16.77767111 16.77767111 42.87601778 19.57319111 63.38104889 6.52515556 15.84469333-11.18435555 24.23466667-30.75868445 20.50503111-49.40003556v-0.93297778h0.93297778l3.72736 3.72963556c15.84583111 15.84469333 41.0112 18.64135111 59.65368889 7.45585778 23.30168889-13.98101333 30.75754667-43.80672 16.77653333-67.1084089-1.86481778-2.79665778-3.72849778-5.59217778-5.59217778-7.45699555l-29.82684444-36.35086222-241.40572445-293.60128c-2.79552-2.79552-6.52401778-3.72736-10.25137778-1.86368l-115.57774222 64.31288889c-37.28270222 20.50503111-81.08942222 24.23352889-121.16878222 9.32067555-22.36871111-7.45699555-39.14638222-25.16650667-47.53521778-46.60337777-6.52401778-22.36984889-3.72849778-46.60337778 8.38883556-66.1765689 2.79665778-5.59331555 0.93297778-12.11733333-4.66033778-14.9139911-1.86368-0.93184-3.72849778-0.93184-5.59217778-0.93184H73.92824889c-12.11733333 0-22.36871111 9.32067555-22.36871111 21.43800888v310.37781334c4.6592 11.18435555 14.91171555 20.50616889 27.02904889 20.50616888zM246.36074667 628.50844445c-18.64135111-10.25251555-41.0112-5.59217778-54.06037334 11.18435555l-32.62236444 40.07936c-13.98101333 17.70951111-12.11733333 43.80672 5.59331556 57.78773333h0.93184l4.66033777 3.72849778c13.04917333 10.25251555 31.69052445 11.18435555 45.6704 3.72849778 0.93297778-0.93297778 1.86481778 0 2.79665778 0.93297778v1.86368c-2.79552 14.91285333 2.79665778 30.75754667 14.91285333 40.07822222l3.72849778 2.79665778c13.04917333 10.25251555 29.82684445 11.18435555 44.73969778 4.66033778 0.93184-0.93297778 2.79552 0 2.79552 0.93184v0.93297777c-1.86368 13.97987555 4.66033778 27.96088889 15.84583111 37.28156445l2.79552 1.86481778c13.05031111 10.25137778 29.82684445 12.11733333 44.73969778 3.72736 0.93297778-0.93184 2.79665778 0 2.79665777 0.93297777v0.93184a42.77134222 42.77134222 0 0 0 15.84469334 26.09720889l1.86368 0.93297778c18.64135111 13.98101333 44.73969778 11.18435555 58.72071111-7.45699556 0.93297778-1.86368 2.79665778-3.72849778 3.72849778-4.66033778l5.59217777-10.25251555c10.25251555-17.70951111 7.45699555-39.14752-7.45699555-53.12853333-12.11733333-11.18435555-29.82570667-13.98101333-45.6704-7.45585778-0.93297778 0-0.93297778 0-1.86481778-0.93297778v-0.93184c0.93297778-22.36871111-16.77653333-41.94304-39.14638222-43.80672-5.59217778 0-11.18435555 0.93297778-16.77767111 2.79665778-6.52401778 0.93184-4.66033778-4.66033778-4.66033778-4.66033778 8.38883555-21.43800889-0.93184-44.73969778-22.36871111-54.06037333-11.18549333-4.66033778-25.16650667-3.72849778-35.41902222 1.86368-4.66033778 0.93297778-3.72849778-3.72736-3.72849778-3.72736 12.11733333-17.70951111 5.59217778-42.87601778-13.98101333-54.06037333z" fill="#ffffff" p-id="22039"></path></svg>